<?xml version="1.0" standalone="no"?>
<!DOCTYPE svg PUBLIC "-//W3C//DTD SVG 20010904//EN"
 "http://www.w3.org/TR/2001/REC-SVG-20010904/DTD/svg10.dtd">
<svg version="1.0" xmlns="http://www.w3.org/2000/svg"
 width="420.000000pt" height="420.000000pt" viewBox="0 0 420.000000 420.000000"
 preserveAspectRatio="xMidYMid meet">
<metadata>
Created by potrace 1.14, written by Peter Selinger 2001-2017
</metadata>
<g transform="translate(0.000000,420.000000) scale(0.100000,-0.100000)"
fill="#000000" stroke="none">
<path d="M1970 3623 c-66 -12 -183 -58 -222 -87 -26 -19 -66 -37 -100 -45 -37
-8 -66 -22 -87 -41 -16 -16 -61 -45 -98 -64 -100 -51 -177 -120 -205 -183 -10
-24 -19 -45 -18 -48 0 -3 -8 -13 -17 -23 -58 -60 -120 -154 -129 -194 -3 -13
-7 -57 -8 -99 -2 -42 -6 -82 -10 -87 -7 -12 -20 -91 -17 -107 1 -5 3 -62 5
-125 1 -63 8 -131 14 -150 6 -19 13 -63 16 -98 7 -82 16 -129 34 -172 8 -19
16 -50 18 -70 3 -19 7 -42 10 -52 8 -27 -14 -31 -45 -8 -24 16 -34 18 -53 10
-45 -21 -61 -92 -46 -203 16 -123 19 -138 37 -207 9 -39 15 -72 13 -75 -3 -3
-38 -5 -77 -5 -65 0 -75 -3 -100 -27 l-27 -27 6 -166 c4 -91 9 -199 12 -240 3
-41 7 -115 9 -165 11 -238 18 -370 20 -384 2 -18 -23 -62 -42 -74 -7 -4 -13
-15 -13 -22 0 -8 -4 -15 -10 -15 -5 0 -10 -7 -10 -15 0 -8 -3 -15 -7 -15 -9 0
-57 -82 -85 -142 -9 -21 -15 -38 -12 -38 3 0 0 -8 -5 -18 -10 -18 -15 -39 -28
-110 l-6 -32 1392 0 1391 0 0 23 c0 73 -97 291 -163 364 -25 28 -25 60 -2 448
2 33 7 132 10 220 4 88 9 169 11 180 7 35 6 190 -1 207 -14 35 -55 51 -128 49
-63 -1 -69 0 -62 16 4 10 9 27 11 38 2 11 6 31 9 45 43 198 49 303 21 357 -21
41 -37 45 -82 22 -28 -14 -40 -16 -45 -7 -4 7 -6 15 -4 18 2 4 7 22 10 41 3
19 12 57 20 86 8 28 17 90 20 138 3 47 14 110 24 140 25 70 27 287 3 322 -8
14 -14 45 -13 81 0 44 -6 72 -28 118 -26 54 -88 124 -109 124 -5 0 -21 18 -35
39 -26 39 -77 79 -150 116 -21 11 -46 27 -56 35 -24 21 -38 24 -108 23 -43 -1
-63 2 -64 10 -6 106 -48 183 -133 247 -29 21 -59 44 -67 52 -49 44 -155 74
-274 75 -49 1 -101 -1 -115 -4z"/>
</g>
</svg>
